<mxfile host="app.diagrams.net" modified="2021-11-13T14:40:18.412Z" agent="5.0 (Macintosh; Intel Mac OS X 10_15_7) AppleWebKit/537.36 (KHTML, like Gecko) Chrome/95.0.4638.54 Safari/537.36" etag="FdQ75mB4JuApg35_9GP-" version="14.4.8" type="github">
  <diagram id="C5RBs43oDa-KdzZeNtuy" name="Page-1">
    <mxGraphModel dx="5192" dy="2896" grid="1" gridSize="10" guides="1" tooltips="1" connect="1" arrows="1" fold="1" page="1" pageScale="1" pageWidth="827" pageHeight="1169" math="0" shadow="0">
      <root>
        <mxCell id="WIyWlLk6GJQsqaUBKTNV-0" />
        <mxCell id="WIyWlLk6GJQsqaUBKTNV-1" parent="WIyWlLk6GJQsqaUBKTNV-0" />
        <mxCell id="O1B-n6MP7tAba4WvUYOS-1" style="edgeStyle=orthogonalEdgeStyle;rounded=0;orthogonalLoop=1;jettySize=auto;html=1;exitX=0.5;exitY=1;exitDx=0;exitDy=0;" edge="1" parent="WIyWlLk6GJQsqaUBKTNV-1" source="O1B-n6MP7tAba4WvUYOS-0">
          <mxGeometry relative="1" as="geometry">
            <mxPoint x="99.66666666666674" y="160" as="targetPoint" />
          </mxGeometry>
        </mxCell>
        <mxCell id="O1B-n6MP7tAba4WvUYOS-0" value="Переход на страницу" style="rounded=0;whiteSpace=wrap;html=1;" vertex="1" parent="WIyWlLk6GJQsqaUBKTNV-1">
          <mxGeometry x="40" y="40" width="120" height="60" as="geometry" />
        </mxCell>
        <mxCell id="O1B-n6MP7tAba4WvUYOS-3" value="да" style="edgeStyle=orthogonalEdgeStyle;rounded=0;orthogonalLoop=1;jettySize=auto;html=1;exitX=1;exitY=0.5;exitDx=0;exitDy=0;" edge="1" parent="WIyWlLk6GJQsqaUBKTNV-1" source="O1B-n6MP7tAba4WvUYOS-2">
          <mxGeometry relative="1" as="geometry">
            <mxPoint x="410" y="200" as="targetPoint" />
          </mxGeometry>
        </mxCell>
        <mxCell id="O1B-n6MP7tAba4WvUYOS-4" style="edgeStyle=orthogonalEdgeStyle;rounded=0;orthogonalLoop=1;jettySize=auto;html=1;exitX=0.5;exitY=1;exitDx=0;exitDy=0;" edge="1" parent="WIyWlLk6GJQsqaUBKTNV-1" source="O1B-n6MP7tAba4WvUYOS-2">
          <mxGeometry relative="1" as="geometry">
            <mxPoint x="99.66666666666674" y="280" as="targetPoint" />
          </mxGeometry>
        </mxCell>
        <mxCell id="O1B-n6MP7tAba4WvUYOS-13" value="нет" style="edgeLabel;html=1;align=center;verticalAlign=middle;resizable=0;points=[];" vertex="1" connectable="0" parent="O1B-n6MP7tAba4WvUYOS-4">
          <mxGeometry x="-0.1157" y="1" relative="1" as="geometry">
            <mxPoint as="offset" />
          </mxGeometry>
        </mxCell>
        <mxCell id="O1B-n6MP7tAba4WvUYOS-2" value="is user authed ?" style="rhombus;whiteSpace=wrap;html=1;" vertex="1" parent="WIyWlLk6GJQsqaUBKTNV-1">
          <mxGeometry x="60" y="160" width="80" height="80" as="geometry" />
        </mxCell>
        <mxCell id="O1B-n6MP7tAba4WvUYOS-12" value="нет" style="edgeStyle=orthogonalEdgeStyle;rounded=0;orthogonalLoop=1;jettySize=auto;html=1;exitX=1;exitY=0.5;exitDx=0;exitDy=0;" edge="1" parent="WIyWlLk6GJQsqaUBKTNV-1" source="O1B-n6MP7tAba4WvUYOS-5">
          <mxGeometry relative="1" as="geometry">
            <mxPoint x="240" y="320.33333333333337" as="targetPoint" />
          </mxGeometry>
        </mxCell>
        <mxCell id="O1B-n6MP7tAba4WvUYOS-14" style="edgeStyle=orthogonalEdgeStyle;rounded=0;orthogonalLoop=1;jettySize=auto;html=1;exitX=0.5;exitY=1;exitDx=0;exitDy=0;" edge="1" parent="WIyWlLk6GJQsqaUBKTNV-1" source="O1B-n6MP7tAba4WvUYOS-5">
          <mxGeometry relative="1" as="geometry">
            <mxPoint x="99.66666666666674" y="440" as="targetPoint" />
            <Array as="points">
              <mxPoint x="100" y="400" />
              <mxPoint x="100" y="400" />
            </Array>
          </mxGeometry>
        </mxCell>
        <mxCell id="O1B-n6MP7tAba4WvUYOS-15" value="да" style="edgeLabel;html=1;align=center;verticalAlign=middle;resizable=0;points=[];" vertex="1" connectable="0" parent="O1B-n6MP7tAba4WvUYOS-14">
          <mxGeometry x="-0.2033" y="1" relative="1" as="geometry">
            <mxPoint as="offset" />
          </mxGeometry>
        </mxCell>
        <mxCell id="O1B-n6MP7tAba4WvUYOS-5" value="Страница требует авторизации ?" style="rhombus;whiteSpace=wrap;html=1;" vertex="1" parent="WIyWlLk6GJQsqaUBKTNV-1">
          <mxGeometry x="60" y="280" width="80" height="80" as="geometry" />
        </mxCell>
        <mxCell id="O1B-n6MP7tAba4WvUYOS-11" value="Показать контент" style="rounded=0;whiteSpace=wrap;html=1;fillColor=#d5e8d4;strokeColor=#82b366;" vertex="1" parent="WIyWlLk6GJQsqaUBKTNV-1">
          <mxGeometry x="240" y="290" width="120" height="60" as="geometry" />
        </mxCell>
        <mxCell id="O1B-n6MP7tAba4WvUYOS-23" style="edgeStyle=orthogonalEdgeStyle;rounded=0;orthogonalLoop=1;jettySize=auto;html=1;exitX=0.5;exitY=1;exitDx=0;exitDy=0;entryX=0.5;entryY=0;entryDx=0;entryDy=0;" edge="1" parent="WIyWlLk6GJQsqaUBKTNV-1" source="O1B-n6MP7tAba4WvUYOS-17" target="O1B-n6MP7tAba4WvUYOS-22">
          <mxGeometry relative="1" as="geometry">
            <Array as="points">
              <mxPoint x="100" y="520" />
              <mxPoint x="170" y="520" />
            </Array>
          </mxGeometry>
        </mxCell>
        <mxCell id="O1B-n6MP7tAba4WvUYOS-17" value="Логин" style="rounded=0;whiteSpace=wrap;html=1;fillColor=#dae8fc;strokeColor=#6c8ebf;" vertex="1" parent="WIyWlLk6GJQsqaUBKTNV-1">
          <mxGeometry x="40" y="440" width="120" height="60" as="geometry" />
        </mxCell>
        <mxCell id="O1B-n6MP7tAba4WvUYOS-24" style="edgeStyle=orthogonalEdgeStyle;rounded=0;orthogonalLoop=1;jettySize=auto;html=1;exitX=0.5;exitY=1;exitDx=0;exitDy=0;entryX=0.5;entryY=0;entryDx=0;entryDy=0;" edge="1" parent="WIyWlLk6GJQsqaUBKTNV-1" source="O1B-n6MP7tAba4WvUYOS-18" target="O1B-n6MP7tAba4WvUYOS-22">
          <mxGeometry relative="1" as="geometry">
            <mxPoint x="170" y="540" as="targetPoint" />
            <Array as="points">
              <mxPoint x="230" y="520" />
              <mxPoint x="170" y="520" />
            </Array>
          </mxGeometry>
        </mxCell>
        <mxCell id="O1B-n6MP7tAba4WvUYOS-18" value="Регистрация" style="rounded=0;whiteSpace=wrap;html=1;fillColor=#dae8fc;strokeColor=#6c8ebf;" vertex="1" parent="WIyWlLk6GJQsqaUBKTNV-1">
          <mxGeometry x="170" y="440" width="120" height="60" as="geometry" />
        </mxCell>
        <mxCell id="O1B-n6MP7tAba4WvUYOS-20" value="" style="endArrow=classic;html=1;entryX=0.5;entryY=0;entryDx=0;entryDy=0;" edge="1" parent="WIyWlLk6GJQsqaUBKTNV-1" target="O1B-n6MP7tAba4WvUYOS-18">
          <mxGeometry width="50" height="50" relative="1" as="geometry">
            <mxPoint x="100" y="380" as="sourcePoint" />
            <mxPoint x="390" y="290" as="targetPoint" />
            <Array as="points">
              <mxPoint x="230" y="380" />
            </Array>
          </mxGeometry>
        </mxCell>
        <mxCell id="O1B-n6MP7tAba4WvUYOS-21" value="да" style="edgeLabel;html=1;align=center;verticalAlign=middle;resizable=0;points=[];" vertex="1" connectable="0" parent="O1B-n6MP7tAba4WvUYOS-20">
          <mxGeometry x="0.5508" y="-4" relative="1" as="geometry">
            <mxPoint as="offset" />
          </mxGeometry>
        </mxCell>
        <mxCell id="O1B-n6MP7tAba4WvUYOS-50" style="edgeStyle=orthogonalEdgeStyle;rounded=0;orthogonalLoop=1;jettySize=auto;html=1;exitX=1;exitY=0.5;exitDx=0;exitDy=0;" edge="1" parent="WIyWlLk6GJQsqaUBKTNV-1" source="O1B-n6MP7tAba4WvUYOS-22">
          <mxGeometry relative="1" as="geometry">
            <mxPoint x="100" y="368.4" as="targetPoint" />
            <Array as="points">
              <mxPoint x="320" y="590" />
              <mxPoint x="320" y="368" />
            </Array>
          </mxGeometry>
        </mxCell>
        <mxCell id="O1B-n6MP7tAba4WvUYOS-51" value="нет" style="edgeLabel;html=1;align=center;verticalAlign=middle;resizable=0;points=[];" vertex="1" connectable="0" parent="O1B-n6MP7tAba4WvUYOS-50">
          <mxGeometry x="-0.1951" relative="1" as="geometry">
            <mxPoint x="-70.03" y="112" as="offset" />
          </mxGeometry>
        </mxCell>
        <mxCell id="O1B-n6MP7tAba4WvUYOS-52" value="нет" style="edgeLabel;html=1;align=center;verticalAlign=middle;resizable=0;points=[];" vertex="1" connectable="0" parent="O1B-n6MP7tAba4WvUYOS-50">
          <mxGeometry x="-0.1018" y="-1" relative="1" as="geometry">
            <mxPoint as="offset" />
          </mxGeometry>
        </mxCell>
        <mxCell id="O1B-n6MP7tAba4WvUYOS-54" style="edgeStyle=orthogonalEdgeStyle;rounded=0;orthogonalLoop=1;jettySize=auto;html=1;exitX=0;exitY=0.5;exitDx=0;exitDy=0;entryX=0;entryY=0.5;entryDx=0;entryDy=0;" edge="1" parent="WIyWlLk6GJQsqaUBKTNV-1" source="O1B-n6MP7tAba4WvUYOS-22" target="O1B-n6MP7tAba4WvUYOS-2">
          <mxGeometry relative="1" as="geometry">
            <Array as="points">
              <mxPoint x="20" y="590" />
              <mxPoint x="20" y="200" />
            </Array>
          </mxGeometry>
        </mxCell>
        <mxCell id="O1B-n6MP7tAba4WvUYOS-55" value="да" style="edgeLabel;html=1;align=center;verticalAlign=middle;resizable=0;points=[];" vertex="1" connectable="0" parent="O1B-n6MP7tAba4WvUYOS-54">
          <mxGeometry x="0.2148" relative="1" as="geometry">
            <mxPoint as="offset" />
          </mxGeometry>
        </mxCell>
        <mxCell id="O1B-n6MP7tAba4WvUYOS-56" value="да" style="edgeLabel;html=1;align=center;verticalAlign=middle;resizable=0;points=[];" vertex="1" connectable="0" parent="O1B-n6MP7tAba4WvUYOS-54">
          <mxGeometry x="-0.7567" y="-3" relative="1" as="geometry">
            <mxPoint as="offset" />
          </mxGeometry>
        </mxCell>
        <mxCell id="O1B-n6MP7tAba4WvUYOS-22" value="Успех?" style="rhombus;whiteSpace=wrap;html=1;" vertex="1" parent="WIyWlLk6GJQsqaUBKTNV-1">
          <mxGeometry x="130" y="550" width="80" height="80" as="geometry" />
        </mxCell>
        <mxCell id="O1B-n6MP7tAba4WvUYOS-29" value="" style="endArrow=classic;html=1;" edge="1" parent="WIyWlLk6GJQsqaUBKTNV-1">
          <mxGeometry width="50" height="50" relative="1" as="geometry">
            <mxPoint x="320" y="590" as="sourcePoint" />
            <mxPoint x="400" y="640" as="targetPoint" />
            <Array as="points">
              <mxPoint x="320" y="640" />
            </Array>
          </mxGeometry>
        </mxCell>
        <mxCell id="O1B-n6MP7tAba4WvUYOS-53" value="нет" style="edgeLabel;html=1;align=center;verticalAlign=middle;resizable=0;points=[];" vertex="1" connectable="0" parent="O1B-n6MP7tAba4WvUYOS-29">
          <mxGeometry x="-0.5692" y="-1" relative="1" as="geometry">
            <mxPoint as="offset" />
          </mxGeometry>
        </mxCell>
        <mxCell id="O1B-n6MP7tAba4WvUYOS-30" value="На главную" style="rounded=0;whiteSpace=wrap;html=1;fillColor=#fff2cc;strokeColor=#d6b656;" vertex="1" parent="WIyWlLk6GJQsqaUBKTNV-1">
          <mxGeometry x="400" y="610" width="120" height="60" as="geometry" />
        </mxCell>
        <mxCell id="O1B-n6MP7tAba4WvUYOS-32" style="edgeStyle=orthogonalEdgeStyle;rounded=0;orthogonalLoop=1;jettySize=auto;html=1;exitX=1;exitY=0.5;exitDx=0;exitDy=0;" edge="1" parent="WIyWlLk6GJQsqaUBKTNV-1" source="O1B-n6MP7tAba4WvUYOS-31">
          <mxGeometry relative="1" as="geometry">
            <mxPoint x="600" y="200.33333333333337" as="targetPoint" />
          </mxGeometry>
        </mxCell>
        <mxCell id="O1B-n6MP7tAba4WvUYOS-33" value="да" style="edgeLabel;html=1;align=center;verticalAlign=middle;resizable=0;points=[];" vertex="1" connectable="0" parent="O1B-n6MP7tAba4WvUYOS-32">
          <mxGeometry x="-0.2194" y="2" relative="1" as="geometry">
            <mxPoint as="offset" />
          </mxGeometry>
        </mxCell>
        <mxCell id="O1B-n6MP7tAba4WvUYOS-59" style="edgeStyle=orthogonalEdgeStyle;rounded=0;orthogonalLoop=1;jettySize=auto;html=1;exitX=0.5;exitY=1;exitDx=0;exitDy=0;" edge="1" parent="WIyWlLk6GJQsqaUBKTNV-1" source="O1B-n6MP7tAba4WvUYOS-31" target="O1B-n6MP7tAba4WvUYOS-11">
          <mxGeometry relative="1" as="geometry" />
        </mxCell>
        <mxCell id="O1B-n6MP7tAba4WvUYOS-60" value="нет" style="edgeLabel;html=1;align=center;verticalAlign=middle;resizable=0;points=[];" vertex="1" connectable="0" parent="O1B-n6MP7tAba4WvUYOS-59">
          <mxGeometry x="-0.1457" y="2" relative="1" as="geometry">
            <mxPoint as="offset" />
          </mxGeometry>
        </mxCell>
        <mxCell id="O1B-n6MP7tAba4WvUYOS-31" value="Страница приватная ?" style="rhombus;whiteSpace=wrap;html=1;" vertex="1" parent="WIyWlLk6GJQsqaUBKTNV-1">
          <mxGeometry x="414" y="160" width="80" height="80" as="geometry" />
        </mxCell>
        <mxCell id="O1B-n6MP7tAba4WvUYOS-35" value="нет" style="edgeStyle=orthogonalEdgeStyle;rounded=0;orthogonalLoop=1;jettySize=auto;html=1;exitX=1;exitY=0.5;exitDx=0;exitDy=0;entryX=0.5;entryY=0;entryDx=0;entryDy=0;" edge="1" parent="WIyWlLk6GJQsqaUBKTNV-1" source="O1B-n6MP7tAba4WvUYOS-34" target="O1B-n6MP7tAba4WvUYOS-43">
          <mxGeometry relative="1" as="geometry">
            <mxPoint x="740.0000000000002" y="200.33333333333337" as="targetPoint" />
          </mxGeometry>
        </mxCell>
        <mxCell id="O1B-n6MP7tAba4WvUYOS-39" style="edgeStyle=orthogonalEdgeStyle;rounded=0;orthogonalLoop=1;jettySize=auto;html=1;exitX=0.5;exitY=1;exitDx=0;exitDy=0;entryX=1;entryY=0.5;entryDx=0;entryDy=0;" edge="1" parent="WIyWlLk6GJQsqaUBKTNV-1" source="O1B-n6MP7tAba4WvUYOS-34" target="O1B-n6MP7tAba4WvUYOS-11">
          <mxGeometry relative="1" as="geometry">
            <mxPoint x="639.6666666666667" y="290" as="targetPoint" />
          </mxGeometry>
        </mxCell>
        <mxCell id="O1B-n6MP7tAba4WvUYOS-40" value="да" style="edgeLabel;html=1;align=center;verticalAlign=middle;resizable=0;points=[];" vertex="1" connectable="0" parent="O1B-n6MP7tAba4WvUYOS-39">
          <mxGeometry x="-0.1921" relative="1" as="geometry">
            <mxPoint as="offset" />
          </mxGeometry>
        </mxCell>
        <mxCell id="O1B-n6MP7tAba4WvUYOS-34" value="Есть доступ?" style="rhombus;whiteSpace=wrap;html=1;" vertex="1" parent="WIyWlLk6GJQsqaUBKTNV-1">
          <mxGeometry x="600" y="160" width="80" height="80" as="geometry" />
        </mxCell>
        <mxCell id="O1B-n6MP7tAba4WvUYOS-44" style="edgeStyle=orthogonalEdgeStyle;rounded=0;orthogonalLoop=1;jettySize=auto;html=1;exitX=0.5;exitY=1;exitDx=0;exitDy=0;entryX=0.5;entryY=0;entryDx=0;entryDy=0;" edge="1" parent="WIyWlLk6GJQsqaUBKTNV-1" source="O1B-n6MP7tAba4WvUYOS-43" target="O1B-n6MP7tAba4WvUYOS-30">
          <mxGeometry relative="1" as="geometry" />
        </mxCell>
        <mxCell id="O1B-n6MP7tAba4WvUYOS-43" value="Объяснить, что происходит" style="rounded=0;whiteSpace=wrap;html=1;fillColor=#fff2cc;strokeColor=#d6b656;" vertex="1" parent="WIyWlLk6GJQsqaUBKTNV-1">
          <mxGeometry x="680" y="300" width="120" height="60" as="geometry" />
        </mxCell>
        <mxCell id="O1B-n6MP7tAba4WvUYOS-61" value="Wishy auth in general" style="text;html=1;strokeColor=none;fillColor=none;align=center;verticalAlign=middle;whiteSpace=wrap;rounded=0;" vertex="1" parent="WIyWlLk6GJQsqaUBKTNV-1">
          <mxGeometry x="420" y="40" width="40" height="20" as="geometry" />
        </mxCell>
        <mxCell id="O1B-n6MP7tAba4WvUYOS-62" value="Wishy isAuth" style="text;html=1;strokeColor=none;fillColor=none;align=center;verticalAlign=middle;whiteSpace=wrap;rounded=0;" vertex="1" parent="WIyWlLk6GJQsqaUBKTNV-1">
          <mxGeometry x="1110" y="50" width="40" height="20" as="geometry" />
        </mxCell>
        <mxCell id="O1B-n6MP7tAba4WvUYOS-68" style="edgeStyle=orthogonalEdgeStyle;rounded=0;orthogonalLoop=1;jettySize=auto;html=1;exitX=0.5;exitY=1;exitDx=0;exitDy=0;" edge="1" parent="WIyWlLk6GJQsqaUBKTNV-1" source="O1B-n6MP7tAba4WvUYOS-64">
          <mxGeometry relative="1" as="geometry">
            <mxPoint x="1240.093023255814" y="160" as="targetPoint" />
          </mxGeometry>
        </mxCell>
        <mxCell id="O1B-n6MP7tAba4WvUYOS-64" value="Переход на страницу" style="rounded=0;whiteSpace=wrap;html=1;" vertex="1" parent="WIyWlLk6GJQsqaUBKTNV-1">
          <mxGeometry x="1180" y="40" width="120" height="60" as="geometry" />
        </mxCell>
      </root>
    </mxGraphModel>
  </diagram>
</mxfile>
